<svg width="20" height="16" viewBox="0 0 20 16" fill="none" xmlns="http://www.w3.org/2000/svg">
<path d="M4.8 6.61L3.37 5.19C3.73 4.79 4.59 4 5.75 4C6.55 4 7.14 4.39 7.56 4.67C7.87 4.88 8.07 5 8.25 5C8.62 5 9.05 4.59 9.2 4.39L10.62 5.81C10.26 6.21 9.4 7 8.25 7C7.46 7 6.88 6.62 6.46 6.34C6.13 6.12 5.94 6 5.75 6C5.38 6 4.95 6.41 4.8 6.61ZM5.75 11C5.94 11 6.13 11.12 6.46 11.34C6.88 11.62 7.46 12 8.25 12C9.41 12 10.26 11.21 10.62 10.81L9.2 9.39C9.05 9.59 8.61 10 8.25 10C8.07 10 7.87 9.88 7.56 9.67C7.14 9.39 6.55 9 5.75 9C4.59 9 3.73 9.79 3.37 10.19L4.79 11.61C4.95 11.41 5.38 11 5.75 11ZM20 2V14C20 15.1 19.1 16 18 16H2C0.9 16 0 15.1 0 14V2C0 0.9 0.9 0 2 0H18C19.1 0 20 0.9 20 2ZM12 2H2V14H12V2ZM17 12C17 11.45 16.55 11 16 11C15.45 11 15 11.45 15 12C15 12.55 15.45 13 16 13C16.55 13 17 12.55 17 12ZM17 8C17 7.45 16.55 7 16 7C15.45 7 15 7.45 15 8C15 8.55 15.45 9 16 9C16.55 9 17 8.55 17 8ZM17 3H15V5H17V3Z" fill="#323232"/>
</svg>
